# xmcd
# 
# Track frame offsets:
#     150
#     20995
#     38413
#     57270
#     78115
#     95534
# 
# Disc length: 1523
# 
# Revision: 0
# Processed by: cddbd v1.5.2PL0 Copyright (c) Steve Scherf et al.
# Submitted via: fre:ac v1.0.27
# 
DISCID=3f05f106
DTITLE=乃木坂46 - 裸足でSummer(Type-D)
DYEAR=2016
DGENRE=
TTITLE0=裸足でSummer
TTITLE1=僕だけの光
TTITLE2=シークレットグラフィティー
TTITLE3=裸足でSummer　-off　vocal-
TTITLE4=僕だけの光　-off vocal-
TTITLE5=シークレットグラフィティー　-off vocal-
EXTD=
EXTT0=
EXTT1=
EXTT2=
EXTT3=
EXTT4=
EXTT5=
PLAYORDER=
